<svg xmlns="http://www.w3.org/2000/svg" width="25.81" height="25" viewBox="0 0 25.81 25">
  <g id="Grupo_1294" data-name="Grupo 1294" transform="translate(-1360.69 -53)">
    <rect id="Rectángulo_3095" data-name="Rectángulo 3095" width="25" height="25" transform="translate(1361.5 53)" fill="none"/>
    <path id="Icon_zocial-cart" data-name="Icon zocial-cart" d="M1.93,5.92A1.2,1.2,0,0,1,3.17,4.68H6.445a1.236,1.236,0,0,1,.769.256,1.2,1.2,0,0,1,.445.688l.647,2.643H24.449l.19-.566a1.115,1.115,0,0,1,1.16-.863.83.83,0,0,1,.351.054c.269.072,1,.182,1.158.4a1.178,1.178,0,0,1,.243.728,1.507,1.507,0,0,1-.054.351L23.8,19a1.16,1.16,0,0,1-.431.647,1.185,1.185,0,0,1-.728.243H9.6a1.2,1.2,0,0,1-.769-.269,1.259,1.259,0,0,1-.445-.675L5.474,7.134H3.17a1.22,1.22,0,0,1-.876-.351A1.151,1.151,0,0,1,1.93,5.92Zm6.969,4.8,1.672,6.688H21.726l.053-.242,1.942-6.445H8.9Zm1.133,13.052a2.366,2.366,0,0,1,.742-1.753,2.436,2.436,0,0,1,1.766-.728,2.39,2.39,0,0,1,1.753.728,2.28,2.28,0,0,1,.593,1.753,2.28,2.28,0,0,1-.593,1.753,2.39,2.39,0,0,1-1.753.727,2.435,2.435,0,0,1-1.766-.727A2.37,2.37,0,0,1,10.032,23.773Zm1.753-10.949h3.461V15.3H12.323Zm5.591,2.481.027-2.48h3.353l-.647,2.48Zm-.018,8.468A2.367,2.367,0,0,1,18.1,22.02a2.433,2.433,0,0,1,1.766-.728,2.481,2.481,0,0,1,0,4.961,2.433,2.433,0,0,1-1.766-.727A2.367,2.367,0,0,1,17.358,23.773Z" transform="translate(1358.76 50.32)" fill="#fff"/>
  </g>
</svg>
