<svg xmlns="http://www.w3.org/2000/svg" width="115" height="40" viewBox="0 0 115 40">
  <g id="Grupo_1810" data-name="Grupo 1810" transform="translate(13966 16409)">
    <rect id="Rectángulo_3710" data-name="Rectángulo 3710" width="115" height="40" transform="translate(-13966 -16409)" fill="none"/>
    <path id="Icon_simple-visa" data-name="Icon simple-visa" d="M38.656,13.15a11.06,11.06,0,0,0-3.856-.667c-4.255,0-7.257,2.145-7.279,5.218-.027,2.26,2.136,3.532,3.769,4.29,1.677.776,2.238,1.263,2.234,1.961-.011,1.057-1.341,1.536-2.575,1.536a9.109,9.109,0,0,1-4.057-.831l-.53-.246-.6,3.541a14.4,14.4,0,0,0,4.82.831c4.523,0,7.479-2.129,7.514-5.4.035-1.8-1.13-3.169-3.592-4.294-1.494-.731-2.424-1.221-2.424-1.963,0-.656.8-1.356,2.457-1.356a7.889,7.889,0,0,1,3.224.6l.4.179.6-3.421-.1.022ZM49.7,12.773H46.374a2.151,2.151,0,0,0-2.262,1.31L37.719,28.562h4.523l.9-2.371,5.518,0c.135.554.532,2.367.532,2.367h3.986L49.7,12.773ZM21.406,12.64h4.305l-2.692,15.8H18.711l2.695-15.8ZM10.461,21.347l.448,2.194,4.212-10.767h4.563L12.9,28.539H8.35L4.627,15.186a.882.882,0,0,0-.4-.525A18.2,18.2,0,0,0,0,13.095l.055-.332H6.993A1.8,1.8,0,0,1,8.95,14.1l1.511,7.253v-.007Zm33.921,1.611L46.1,18.539c-.022.044.355-.913.572-1.507l.295,1.363.995,4.558H44.382v0Z" transform="translate(-13935.091 -16409.883)" fill="#666"/>
  </g>
</svg>
