<svg xmlns="http://www.w3.org/2000/svg" width="156.292" height="31.266" viewBox="0 0 156.292 31.266">
  <g id="Grupo_1297" data-name="Grupo 1297" transform="translate(-1.348 -1.467)">
    <path id="Trazado_365" data-name="Trazado 365" d="M712.746,414.88a6.107,6.107,0,0,1-6.156,5.327h-9.153a1.125,1.125,0,0,1-1.14-1.3l1.837-14.99a1.511,1.511,0,0,1,1.458-1.3h7.495c3.97,0,5.9,1.91,5.567,4.6A6.327,6.327,0,0,1,711,410.659,4.3,4.3,0,0,1,712.746,414.88Zm-10.433-8.568-.388,3.166h4.824a1.8,1.8,0,0,0,1.645-1.734c.111-.9-.5-1.432-1.608-1.432Zm6.028,8.216c.123-1.005-.2-1.608-1.763-1.608H701.5l-.422,3.442h5.05A1.985,1.985,0,0,0,708.341,414.529Z" transform="translate(-655.087 -394.379)" fill="#fff"/>
    <path id="Trazado_366" data-name="Trazado 366" d="M780.948,419.805l-.489,2.62a.757.757,0,0,1-.723.608h-.748c-2.06,0-4.139,1.382-4.583,5l-.493,4.024a.756.756,0,0,1-.729.65h-3a.563.563,0,0,1-.57-.65l1.467-11.967a.755.755,0,0,1,.729-.65h2.567a.559.559,0,0,1,.574.545l.1,2.545c1.057-2.06,2.655-3.417,4.916-3.417h.413A.565.565,0,0,1,780.948,419.805Z" transform="translate(-710.653 -406.879)" fill="#fff"/>
    <path id="Trazado_367" data-name="Trazado 367" d="M831.152,426.074c-.517,4.221-4.195,6.96-8.491,6.96-4.322,0-7.353-2.739-6.835-6.96s4.22-6.96,8.542-6.96C828.663,419.114,831.669,421.853,831.152,426.074Zm-4.422,0a2.621,2.621,0,0,0-2.837-3.09,3.56,3.56,0,0,0-3.67,3.09,2.688,2.688,0,0,0,2.91,3.116A3.511,3.511,0,0,0,826.73,426.074Z" transform="translate(-745.63 -406.879)" fill="#fff"/>
    <path id="Trazado_368" data-name="Trazado 368" d="M899.211,426.074c-.518,4.221-4.2,6.96-8.491,6.96-4.322,0-7.353-2.739-6.835-6.96s4.22-6.96,8.541-6.96C896.722,419.114,899.728,421.853,899.211,426.074Zm-4.422,0a2.62,2.62,0,0,0-2.837-3.09,3.56,3.56,0,0,0-3.67,3.09,2.688,2.688,0,0,0,2.91,3.116A3.512,3.512,0,0,0,894.789,426.074Z" transform="translate(-797.206 -406.879)" fill="#fff"/>
    <path id="Trazado_369" data-name="Trazado 369" d="M957.262,412.311h-1.432l-.57,4.652a.756.756,0,0,1-.729.65h-3.022a.562.562,0,0,1-.57-.65l2.1-17.118a.756.756,0,0,1,.729-.65h3.022a.563.563,0,0,1,.57.65l-1.1,9h1.407l4.6-4.5h3.925a.386.386,0,0,1,.218.7l-5.184,4.933-.492.326.4.4,4.005,6.212a.48.48,0,0,1-.429.7h-4.071Z" transform="translate(-848.059 -391.784)" fill="#fff"/>
    <path id="Trazado_370" data-name="Trazado 370" d="M1023.332,417.612h-3.022a.563.563,0,0,1-.57-.65l2.1-17.118a.756.756,0,0,1,.729-.65h3.022a.563.563,0,0,1,.57.65l-2.1,17.118A.756.756,0,0,1,1023.332,417.612Z" transform="translate(-900.198 -391.784)" fill="#fff"/>
    <path id="Trazado_371" data-name="Trazado 371" d="M1130.192,424.365l-.943,7.692a.755.755,0,0,1-.729.65H1125.5a.563.563,0,0,1-.57-.65l.835-6.813a2.043,2.043,0,0,0-2.3-2.538c-1.885,0-2.883,1.382-3.188,3.869l-.671,5.481a.756.756,0,0,1-.729.65h-3.022a.563.563,0,0,1-.57-.65l1.467-11.967a.755.755,0,0,1,.729-.65h2.617a.559.559,0,0,1,.573.516l.132,1.519a6.177,6.177,0,0,1,4.712-2.362A4.423,4.423,0,0,1,1130.192,424.365Z" transform="translate(-972.599 -406.879)" fill="#fff"/>
    <path id="Trazado_372" data-name="Trazado 372" d="M1056.564,440.631h-2.654a.376.376,0,0,1-.333-.558l2.821-6.552v-.007l-3.782-12.173a.706.706,0,0,1,.675-.882h3.348a.536.536,0,0,1,.531.394l1.883,8.253,3.746-8.181a.8.8,0,0,1,.706-.467h3.285a.613.613,0,0,1,.515.949l-6.649,12.243-3.432,6.572A.772.772,0,0,1,1056.564,440.631Z" transform="translate(-925.094 -407.899)" fill="#fff"/>
    <path id="Trazado_373" data-name="Trazado 373" d="M553.634,389.624a6.248,6.248,0,0,0-1.439-3.554,5.9,5.9,0,0,0-1.334-1.183,6.975,6.975,0,0,0-1-.473,5.655,5.655,0,0,0-1.6-.206h-7.622l2.625,6.605a2.133,2.133,0,0,1,.155.5.421.421,0,0,1-.421.421.767.767,0,0,1-.312-.133l-9.649-8.246a1.24,1.24,0,0,1,.178-1.753l.89-.8s9.076-7.435,9.087-7.439a.437.437,0,0,1,.224-.058.516.516,0,0,1,.514.512.112.112,0,0,1-.006.043.311.311,0,0,1-.019.091l-3.177,6.486,4.94.018a7.569,7.569,0,0,0,1.364-.106,10.986,10.986,0,0,0,2.9-1.966,7.526,7.526,0,0,0,2.511-4.671,5.788,5.788,0,0,0-1.342-4.6,5.672,5.672,0,0,0-4.324-1.869H532.708c-2,0-4.559,2.562-4.81,4.559l-2.941,23.034a3.287,3.287,0,0,0,.768,2.614,3.229,3.229,0,0,0,2.454,1.058H545.3a8.3,8.3,0,0,0,5.494-2.162,8.388,8.388,0,0,0,2.8-5.232c.007-.079.02-.153.028-.232A7.858,7.858,0,0,0,553.634,389.624Z" transform="translate(-523.581 -365.773)" fill="#fff"/>
  </g>
</svg>
