<svg id="MDI_tag" data-name="MDI / tag" xmlns="http://www.w3.org/2000/svg" width="22" height="22" viewBox="0 0 22 22">
  <g id="Boundary" fill="#f6423e" stroke="rgba(0,0,0,0)" stroke-width="1" opacity="0">
    <rect width="22" height="22" stroke="none"/>
    <rect x="0.5" y="0.5" width="21" height="21" fill="none"/>
  </g>
  <path id="Path_tag" data-name="Path / tag" d="M5.712,6.934A1.222,1.222,0,1,1,6.934,5.712,1.222,1.222,0,0,1,5.712,6.934M17.808,9.8l-7.33-7.33A1.619,1.619,0,0,0,9.33,2h-5.7A1.623,1.623,0,0,0,2,3.629v5.7a1.592,1.592,0,0,0,.481,1.148L9.8,17.808a1.66,1.66,0,0,0,1.156.481,1.626,1.626,0,0,0,1.148-.481l5.7-5.7a1.592,1.592,0,0,0,.481-1.148A1.63,1.63,0,0,0,17.808,9.8Z" transform="translate(0.856 0.856)" fill="#f6423e"/>
</svg>
